# xmcd
#
# Track frame offsets: 
#        150
#        10486
#        22214
#        34915
#        47704
#        59865
#        70242
#        81978
#        94196
#        105755
#        116427
#        130424
#        144730
#        158441
#        171609
#        185941
#        198780
#        209266
#        223161
#        238214
#        250996
#        263537
#        275515
#        289176
#
# Disc length: 4010 seconds
#
# Revision: 1
# Processed by: cddbd v1.5.1PL0 Copyright (c) Steve Scherf et al.
# Submitted via: ExactAudioCopy v0.95b2
#
DISCID=790fa818
DTITLE=Ray Charles - Singin' the Blues with Soul
DYEAR=1900
DGENRE=Blues
TTITLE0=Ain't That Fine
TTITLE1=How Long Blues
TTITLE2=Blues Before Sunrise
TTITLE3=You'll Never Miss the Water
TTITLE4=I've Had My Fun
TTITLE5=Sittin' on Top of the World
TTITLE6=See See Rider
TTITLE7=Honey Honey
TTITLE8=What Have I Done
TTITLE9=The Ego Song
TTITLE10=Late in the Evening Blues
TTITLE11=Some Day
TTITLE12=Baby Let Me Hold Your Hand
TTITLE13=Baby, Won't You Please Come Home
TTITLE14=Kissa Me Baby
TTITLE15=The Snow Is Falling
TTITLE16=Hey Now
TTITLE17=Misery in My Heart
TTITLE18=I'm Wondering and Wondering
TTITLE19=Why Did You Go ?
TTITLE20=Jumpin' in the Morning
TTITLE21=The Sun's Gonna Shine Again
TTITLE22=The Midnight Hour
TTITLE23=Roll with My Baby
EXTD=
EXTT0=
EXTT1=
EXTT2=
EXTT3=
EXTT4=
EXTT5=
EXTT6=
EXTT7=
EXTT8=
EXTT9=
EXTT10=
EXTT11=
EXTT12=
EXTT13=
EXTT14=
EXTT15=
EXTT16=
EXTT17=
EXTT18=
EXTT19=
EXTT20=
EXTT21=
EXTT22=
EXTT23=
PLAYORDER=
